<svg width="89" height="31" viewBox="0 0 89 31" fill="none" xmlns="http://www.w3.org/2000/svg">
<path d="M87.0744 16.0752C86.5343 13.1396 84.2205 10.9477 81.4455 10.747L61.1457 9.27131C60.8619 9.25164 60.5899 9.15325 60.3573 8.99192L50.3413 2.00303C48.465 0.692593 46.2892 0 44.0463 0H25.4528C23.1114 0 20.8409 0.724076 18.8858 2.0935L10.3085 8.10651C10.0602 8.27965 9.76849 8.37804 9.46498 8.38984L1.3647 8.71252L0.0166601 21.565C-0.137065 23.0367 0.78924 24.3709 2.12546 24.603L5.11721 25.1145C5.10933 24.965 5.09356 24.8233 5.09356 24.6738C5.09356 19.6446 9.19299 15.556 14.2266 15.556C19.2642 15.556 23.3597 19.6485 23.3597 24.6738C23.3597 24.9768 23.344 25.2759 23.3124 25.571H63.9203C63.8927 25.2759 63.873 24.9768 63.873 24.6738C63.873 19.6446 67.9724 15.556 73.006 15.556C78.0436 15.556 82.1391 19.6485 82.1391 24.6738C82.1391 24.8627 82.1233 25.0476 82.1115 25.2326L87.3028 24.2252C87.9611 24.0953 88.4065 23.3594 88.2646 22.6157L87.0663 16.0675L87.0744 16.0752Z" fill="black"/>
<path d="M78.9935 24.6735C78.9935 27.9712 76.3132 30.6472 73.0099 30.6472C69.7068 30.6472 67.0303 27.9713 67.0303 24.6735C67.0303 21.3758 69.7067 18.7039 73.0099 18.7039C76.3131 18.7039 78.9935 21.3758 78.9935 24.6735Z" fill="black"/>
<path d="M20.2059 24.6735C20.2059 27.9712 17.5295 30.6472 14.2263 30.6472C10.9231 30.6472 8.24658 27.9713 8.24658 24.6735C8.24658 21.3758 10.923 18.7039 14.2263 18.7039C17.5294 18.7039 20.2059 21.3758 20.2059 24.6735Z" fill="black"/>
</svg>
