<svg width="142" height="142" viewBox="0 0 142 142" fill="none" xmlns="http://www.w3.org/2000/svg">
<path d="M70.7107 0L141.421 70.7107L70.7107 141.421L0 70.7107L70.7107 0Z" fill="#E94F37"/>
<path d="M63.3829 62.4867C62.8709 64.3427 61.9109 65.7987 60.5029 66.8547C59.0949 67.8787 57.3189 68.5187 55.1749 68.7747C56.7109 68.9027 57.8629 69.3507 58.6309 70.1187C59.3989 70.8867 59.7829 71.8947 59.7829 73.1427C59.7829 73.6227 59.7029 74.2147 59.5429 74.9187L59.0149 77.2707C58.9509 77.5907 58.9189 77.8147 58.9189 77.9427C58.9189 78.3587 59.0149 78.6787 59.2069 78.9027C59.3989 79.0947 59.6709 79.1907 60.0229 79.1907C60.6949 79.1907 61.1749 79.2867 61.4629 79.4787C61.7829 79.6707 61.8949 80.0227 61.7989 80.5347C61.6709 81.2707 61.2869 81.9907 60.6469 82.6947C60.0069 83.3987 59.0949 83.9907 57.9109 84.4707C56.7589 84.9187 55.3509 85.1427 53.6869 85.1427C51.5749 85.1427 49.8949 84.6787 48.6469 83.7507C47.3989 82.7907 46.7749 81.4307 46.7749 79.6707C46.7749 78.9987 46.8709 78.2787 47.0629 77.5107L47.8309 74.4387C47.9589 74.0227 48.0229 73.5907 48.0229 73.1427C48.0229 72.4067 47.7669 71.8787 47.2549 71.5587C46.7749 71.2387 45.9909 71.0787 44.9029 71.0787H43.0789L40.8709 79.0467C40.8069 79.2387 40.7749 79.4787 40.7749 79.7667C40.7749 80.2147 40.8869 80.5987 41.1109 80.9187C41.3349 81.2387 41.6389 81.5747 42.0229 81.9267C42.3109 82.1507 42.5349 82.3747 42.6949 82.5987C42.8549 82.7907 42.9349 82.9987 42.9349 83.2227C42.9349 83.7667 42.6789 84.1507 42.1669 84.3747C41.6549 84.5987 40.9029 84.7107 39.9109 84.7107H27.8629C27.0309 84.7107 26.4069 84.5667 25.9909 84.2787C25.5749 83.9587 25.4309 83.5267 25.5589 82.9827C25.6229 82.6947 25.7509 82.4707 25.9429 82.3107C26.1029 82.1187 26.3589 81.9107 26.7109 81.6867C27.2549 81.3667 27.6869 81.0307 28.0069 80.6787C28.3269 80.3267 28.5829 79.7827 28.7749 79.0467L34.6309 58.3587C34.7589 57.9427 34.8229 57.5427 34.8229 57.1587C34.8229 56.8067 34.7589 56.5187 34.6309 56.2947C34.5349 56.0387 34.3909 55.7507 34.1989 55.4307C33.9109 55.0147 33.7669 54.6787 33.7669 54.4227C33.7669 54.3267 33.7989 54.1507 33.8629 53.8947C33.9909 53.4787 34.2629 53.1907 34.6789 53.0307C35.1269 52.8387 35.7989 52.7427 36.6949 52.7427H52.7749C54.9829 52.7427 56.9029 53.0787 58.5349 53.7507C60.1989 54.4227 61.4629 55.3507 62.3269 56.5347C63.2229 57.6867 63.6709 58.9987 63.6709 60.4707C63.6709 61.1427 63.5749 61.8147 63.3829 62.4867ZM51.0949 62.0067C51.2549 61.2707 51.3349 60.7107 51.3349 60.3267C51.3349 58.6307 50.4069 57.7827 48.5509 57.7827H46.5349L44.4229 66.2787H46.4389C47.6869 66.2787 48.6629 65.9747 49.3669 65.3667C50.1029 64.7587 50.6789 63.6387 51.0949 62.0067Z" fill="white"/>
<path d="M80.2688 59.3187C83.9488 59.3187 86.8928 60.0067 89.1008 61.3827C91.3088 62.7267 92.4128 64.7907 92.4128 67.5747C92.4128 68.6307 92.2208 69.8307 91.8368 71.1747L89.8688 77.7987C89.8368 77.9267 89.8208 78.0867 89.8208 78.2787C89.8208 78.7907 90.0288 79.0467 90.4448 79.0467C90.8288 79.0467 91.1488 78.8867 91.4048 78.5667C91.6928 78.2147 91.8848 78.0387 91.9808 78.0387C92.1408 78.0387 92.2688 78.1507 92.3648 78.3747C92.4928 78.5987 92.5568 78.8547 92.5568 79.1427C92.5888 80.0067 92.2528 80.8867 91.5488 81.7827C90.8768 82.6787 89.9648 83.4147 88.8128 83.9907C87.6608 84.5667 86.3968 84.8547 85.0208 84.8547C83.3568 84.8547 81.9328 84.5507 80.7488 83.9427C79.5648 83.3347 78.7488 82.4387 78.3008 81.2547C77.3408 82.4067 76.2048 83.3027 74.8928 83.9427C73.5808 84.5507 72.1728 84.8547 70.6688 84.8547C68.9728 84.8547 67.5488 84.5347 66.3968 83.8947C65.2448 83.2227 64.3808 82.3747 63.8048 81.3507C63.2608 80.2947 62.9888 79.1907 62.9888 78.0387C62.9888 77.5267 63.0368 77.0307 63.1328 76.5507C63.6448 74.3427 64.7488 72.6787 66.4448 71.5587C68.1728 70.4387 70.2208 69.8787 72.5888 69.8787C75.2448 69.8787 77.8528 70.2947 80.4128 71.1267L81.6128 67.9587C82.0288 66.6147 82.2368 65.5747 82.2368 64.8387C82.2048 64.0707 81.9488 63.4947 81.4688 63.1107C80.9888 62.7267 80.2528 62.5347 79.2608 62.5347C79.4528 63.0467 79.5488 63.5747 79.5488 64.1187C79.5488 65.3027 79.1008 66.3267 78.2048 67.1907C77.3088 68.0547 76.0288 68.4867 74.3648 68.4867C72.7968 68.4867 71.5648 68.1507 70.6688 67.4787C69.8048 66.7747 69.3728 65.9107 69.3728 64.8867C69.3728 63.2867 70.2688 61.9587 72.0608 60.9027C73.8528 59.8467 76.5888 59.3187 80.2688 59.3187ZM77.5808 73.8627C76.6848 73.8627 75.9488 74.2147 75.3728 74.9187C74.8288 75.5907 74.5568 76.3267 74.5568 77.1267C74.5568 77.6387 74.6688 78.0547 74.8928 78.3747C75.1488 78.6947 75.5008 78.8547 75.9488 78.8547C76.3648 78.8547 76.8128 78.6947 77.2928 78.3747C77.8048 78.0227 78.1728 77.5107 78.3968 76.8387L79.4048 74.0067C78.8608 73.9107 78.2528 73.8627 77.5808 73.8627Z" fill="white"/>
<path d="M107.163 59.3187C109.019 59.3187 110.379 59.6707 111.243 60.3747C112.107 61.0787 112.539 62.0387 112.539 63.2547C112.539 63.9907 112.427 64.6947 112.203 65.3667L107.787 79.7187C107.691 80.1027 107.643 80.4387 107.643 80.7267C107.643 81.1427 107.723 81.4787 107.883 81.7347C108.043 81.9587 108.267 82.1827 108.555 82.4067C108.779 82.6307 108.939 82.8227 109.035 82.9827C109.131 83.1107 109.147 83.2867 109.083 83.5107C108.923 83.9267 108.603 84.2307 108.123 84.4227C107.643 84.6147 106.907 84.7107 105.915 84.7107H94.9711C94.1391 84.7107 93.5311 84.5827 93.1471 84.3267C92.7631 84.0387 92.6351 83.6707 92.7631 83.2227C92.8911 82.8387 93.2271 82.5027 93.7711 82.2147C94.2511 81.9587 94.6511 81.6547 94.9711 81.3027C95.2911 80.9507 95.5631 80.3907 95.7871 79.6227L99.9631 65.7507C100.059 65.4627 100.107 65.2227 100.107 65.0307C100.107 64.6787 100.027 64.4067 99.8671 64.2147C99.7071 63.9907 99.4671 63.7667 99.1471 63.5427C98.8271 63.2867 98.6031 63.0627 98.4751 62.8707C98.3471 62.6787 98.3311 62.4227 98.4271 62.1027C98.6191 61.3667 99.6271 60.7267 101.451 60.1827C103.275 59.6067 105.179 59.3187 107.163 59.3187ZM110.043 52.0227C110.811 50.6787 111.595 49.7027 112.395 49.0947C113.227 48.4867 114.219 48.1827 115.371 48.1827C116.363 48.1827 117.147 48.4547 117.723 48.9987C118.299 49.5107 118.587 50.2147 118.587 51.1107C118.587 52.0707 118.267 52.9027 117.627 53.6067C116.987 54.3107 115.947 55.0147 114.507 55.7187L110.331 57.7347C109.723 57.9907 109.211 58.1187 108.795 58.1187C108.411 58.1187 108.091 58.0227 107.835 57.8307C107.611 57.6387 107.499 57.3507 107.499 56.9667C107.499 56.5507 107.659 56.0707 107.979 55.5267L110.043 52.0227Z" fill="white"/>
<path d="M73.7107 7.71066C73.7107 9.36752 72.3675 10.7107 70.7107 10.7107C69.0538 10.7107 67.7107 9.36752 67.7107 7.71066C67.7107 6.05381 69.0538 4.71066 70.7107 4.71066C72.3675 4.71066 73.7107 6.05381 73.7107 7.71066Z" fill="white"/>
<path d="M136.711 70.7107C136.711 72.3675 135.368 73.7107 133.711 73.7107C132.054 73.7107 130.711 72.3675 130.711 70.7107C130.711 69.0538 132.054 67.7107 133.711 67.7107C135.368 67.7107 136.711 69.0538 136.711 70.7107Z" fill="white"/>
<path d="M73.7107 133.711C73.7107 135.368 72.3675 136.711 70.7107 136.711C69.0538 136.711 67.7107 135.368 67.7107 133.711C67.7107 132.054 69.0538 130.711 70.7107 130.711C72.3675 130.711 73.7107 132.054 73.7107 133.711Z" fill="white"/>
<path d="M10.7107 70.7107C10.7107 72.3675 9.36753 73.7107 7.71068 73.7107C6.05382 73.7107 4.71068 72.3675 4.71068 70.7107C4.71068 69.0538 6.05382 67.7107 7.71068 67.7107C9.36753 67.7107 10.7107 69.0538 10.7107 70.7107Z" fill="white"/>
</svg>
